<svg width="133" height="162" viewBox="0 0 133 162" fill="none" xmlns="http://www.w3.org/2000/svg">
<path fill-rule="evenodd" clip-rule="evenodd" d="M108.882 1C103.596 3.82752 100 9.4012 100 15.8148C100 25.0877 107.517 32.6049 116.79 32.6049H117.21C123.605 32.6049 129.165 29.0297 132 23.769V142.002C132 152.494 123.494 161 113.002 161H19.9981C9.50574 161 1 152.494 1 142.002V19.9981C1 9.50575 9.50574 1 19.9981 1H108.882Z" fill="#495795" fill-opacity="0.1"/>
<path d="M108.882 1L109.118 1.44088L108.882 0.5V1ZM132 23.769H132.5L131.56 23.5318L132 23.769ZM100.5 15.8148C100.5 9.59288 103.988 4.18488 109.118 1.44088L108.646 0.559116C103.204 3.47016 99.5 9.20952 99.5 15.8148H100.5ZM116.79 32.1049C107.793 32.1049 100.5 24.8116 100.5 15.8148H99.5C99.5 25.3639 107.241 33.1049 116.79 33.1049V32.1049ZM117.21 32.1049H116.79V33.1049H117.21V32.1049ZM131.56 23.5318C128.808 28.6371 123.414 32.1049 117.21 32.1049V33.1049C123.796 33.1049 129.521 29.4223 132.44 24.0062L131.56 23.5318ZM131.5 23.769V142.002H132.5V23.769H131.5ZM131.5 142.002C131.5 152.218 123.218 160.5 113.002 160.5V161.5C123.77 161.5 132.5 152.77 132.5 142.002H131.5ZM113.002 160.5H19.9981V161.5H113.002V160.5ZM19.9981 160.5C9.78188 160.5 1.5 152.218 1.5 142.002H0.5C0.5 152.77 9.22959 161.5 19.9981 161.5V160.5ZM1.5 142.002V19.9981H0.5V142.002H1.5ZM1.5 19.9981C1.5 9.78189 9.78188 1.5 19.9981 1.5V0.5C9.2296 0.5 0.5 9.2296 0.5 19.9981H1.5ZM19.9981 1.5H108.882V0.5H19.9981V1.5Z" fill="#495795"/>
</svg>
